<svg xmlns="http://www.w3.org/2000/svg" viewBox="0 0 64 64" fill="none">
  <defs>
    <linearGradient id="cloudGradient" x1="0%" y1="0%" x2="100%" y2="100%">
      <stop offset="0%" style="stop-color:#06B6D4;stop-opacity:1" />
      <stop offset="100%" style="stop-color:#0891B2;stop-opacity:1" />
    </linearGradient>
  </defs>
  
  <!-- 白色背景圆形 -->
  <circle cx="32" cy="32" r="32" fill="#FFFFFF"/>
  
  <!-- 云朵图标 -->
  <g transform="translate(12, 18)">
    <!-- 主云朵 -->
    <path d="M 8 16 C 8 13.8 9.8 12 12 12 C 12.4 10.3 14 9 16 9 C 18.2 9 20 10.8 20 13 C 22.2 13 24 14.8 24 17 C 24 19.2 22.2 21 20 21 H 12 C 9.8 21 8 19.2 8 17 Z" 
          fill="url(#cloudGradient)" opacity="0.9"/>
    
    <!-- 小云朵 1 -->
    <path d="M 16 6 C 16 4.3 17.3 3 19 3 C 19.3 1.8 20.4 1 21.5 1 C 23 1 24.2 2.2 24.2 3.7 C 25.7 3.7 27 5 27 6.5 C 27 8 25.7 9.3 24.2 9.3 H 19 C 17.3 9.3 16 8 16 6.5 Z" 
          fill="url(#cloudGradient)" opacity="0.7"/>
    
    <!-- 小云朵 2 -->
    <path d="M 2 12 C 2 10.6 3.1 9.5 4.5 9.5 C 4.7 8.6 5.5 8 6.5 8 C 7.6 8 8.5 8.9 8.5 10 C 9.6 10 10.5 10.9 10.5 12 C 10.5 13.1 9.6 14 8.5 14 H 4.5 C 3.1 14 2 12.9 2 11.5 Z" 
          fill="url(#cloudGradient)" opacity="0.6"/>
  </g>
</svg>
